<svg xmlns="http://www.w3.org/2000/svg" xml:space="preserve" width="50.979534mm" height="46.21505mm" viewBox="0 0 50.979534 46.21505"><g style="fill:#fce500;fill-opacity:1"><path d="M93.48 184.076c-.357 1.377-.103 2.302.474 1.287 1.017-1.788 4.275-5.485 8.734-6.843l3.654-1.112c1.6-.295 2.817-1.138 3.613-2.58 1.167-2.29 2.635-4.957 2.71-9.766.039-2.434-.422-3.374-1.993-2.57-3.95 2.025-6.896 3.902-9.476 6.766-6.594 7.32-6.563 11.203-7.717 14.818z" style="display:inline;fill:#fce500;fill-opacity:1;stroke-width:.25" transform="translate(-87.105 -160.551)"/><path d="M135.188 160.598c-1.497 0-4.375 1.142-7.332 2.744-2.581 1.398-5.203 3.158-7.277 4.664-4.332 2.972-7.224 5.632-9.963 8.138-1.349 1.066-1.643 2.172-5.332 2.947-2.742.576-6.015 1.668-7.81 3.585-1.703 1.817-2.396 2.885-3.53 4.805-1.376 2.327-1.872 5.11-2.378 7.036-.256 1.87-.833 3.363-3.213 5.422-1.025.887-1.939 1.862-.515 3.227 1.428 1.37 2.249 2.928 7.25 3.567 2.32.297 5.699-1.46 8.7-2.479 2.063-.855 4.149-1.736 6.64-1.797 3.703-.057 7.172.43 11.326-.36.861-.164 1.447-.758.365-1.41a17.97 17.97 0 0 1-3.626-2.871c-.05-.28.185-.432.57-.36.09.017 3.731.22 6.707-.93.73-.282.414-.797.06-1.103l-3.465-1.681c-1.197-.968-1.334-2.45-1.072-2.592 5.246-4.953 6.88-6.019 10.195-10.857 1.85-2.703 5.007-8.37 6.036-13.402.901-4.541.991-6.178-2.336-6.293zm-.539 3.049c.363.014.261.411.228.751-.243 2.263-1.164 4.371-1.742 6.523-1.433 3.185-2.82 5.804-4.462 8.32-1.122 1.72-2.46 3.221-4.028 4.763-2.45 2.202-6.89 5.181-6.757 6.546.043.435-.014 1.05.315 1.852l-1.638-.38c-1.924-.448-4.324.161-5.65.759-.723.326-.932.597-.384.752 2.317.862 4.626 2.349 5.059 3.615 0 0-2.944.567-4.333 1.008-2.164.689-5.478 2.918-5.59 2.861.608-.655 1.186-1.339 1.92-1.868 1.674-1.21 2.62-1.984 4.86-2.597.178-.048.514-.085-.032-.562-2.018-1.542-3.354-1.573-4.78-1.802-.23-.063-.346-.351-.181-.546 1.545-1.14 3.279-2.216 7.59-3.225.394-.104.429-.21.53-.314.509-.752.667-1.446 1.537-2.315 1.477-1.474 4.237-3.482 5.953-5.292 3.187-3.36 5.328-8.176 5.904-11.69.081-.497.246-1.597-1.207-.993-5.413 2.229-10.055 5.5-12.833 9.277l-.165-.132 1.158-1.82 1.025-1.389c1.508-2.043 3.693-3.81 5.82-5.457 3.799-2.95 8.356-5.165 11.345-6.515.244-.097.417-.135.538-.13zm-31.968 25.102c.7.001.273.929.308 1.486-.736 2.977-2.254 4.21-3.82 4.83-2.226.883-2.654.485-3.902.81-1.45.395-1.53 1.205-1.836 1.405.086-.614.298-1.143.513-1.67.506-1.241 1.31-2.482 3.224-4.035 1.27-1.03 2.688-1.848 4.829-2.662.3-.115.522-.164.684-.164z" style="display:inline;fill:#fce500;stroke-width:.25;fill-opacity:1" transform="translate(-87.105 -160.551)"/></g></svg>